<svg width="24" height="24" viewBox="0 0 24 24" fill="none" xmlns="http://www.w3.org/2000/svg">
<path d="M14.6187 5.44564C14.4366 5.44564 14.2891 5.29802 14.2891 5.11606V4.37475C14.2891 4.19279 14.4366 4.04517 14.6187 4.04517C14.8006 4.04517 14.9482 4.19279 14.9482 4.37475V5.11606C14.9482 5.29802 14.8006 5.44564 14.6187 5.44564Z" fill="black" stroke="black" stroke-width="0.3"/>
<path d="M14.5252 6.28638C14.5252 6.46834 14.3776 6.61596 14.1956 6.61596H13.5698C13.3879 6.61596 13.2402 6.46834 13.2402 6.28638C13.2402 6.10442 13.3879 5.95679 13.5698 5.95679H14.1956C14.3776 5.95679 14.5252 6.10442 14.5252 6.28638Z" fill="black" stroke="black" stroke-width="0.3"/>
<path d="M23.1477 2.88948C23.3323 2.53613 23.227 2.09434 22.9026 1.86185C22.5462 1.60628 22.0337 1.6906 21.7779 2.04724C21.1376 2.94029 20.1544 3.50141 18.8555 3.71565C18.8375 3.71853 18.8191 3.72114 18.801 3.72389C18.8129 3.53094 18.819 3.35145 18.8209 3.18899C18.8292 2.46335 18.227 1.85127 17.4999 1.85127C17.4969 1.85127 10.1615 1.85127 10.1615 1.85127C9.22713 1.85127 8.30222 1.99011 7.41261 2.26394C6.12652 2.65876 4.91103 3.34321 3.89699 4.24313C2.88721 5.13961 2.0675 6.25842 1.52656 7.47859C1.00128 8.66278 0.736098 9.91947 0.738295 11.2143C0.741865 13.1879 1.35298 15.0734 2.50558 16.6668C3.56795 18.1367 5.02213 19.251 6.67446 19.8993C6.95036 20.2859 7.424 20.8102 8.18096 21.2628C9.16671 21.8524 10.3657 22.1615 11.7446 22.1814C12.6231 22.1916 13.4148 21.564 13.5854 20.6955C13.5962 20.6404 13.6292 20.4724 13.9148 20.4445C14.8678 20.3521 15.5338 19.5564 15.5823 18.626C15.594 18.4049 15.6069 18.3605 15.6748 18.3104C16.1456 17.9635 16.4266 17.4077 16.4266 16.8238C16.4266 15.7739 15.5469 14.9258 14.4842 14.9795C13.2546 14.9825 12.3489 15.5785 11.5499 16.1045C11.079 16.4144 10.6313 16.7087 10.1632 16.8558C9.75228 16.4301 9.41609 15.9239 9.23688 15.357C8.98694 14.5549 9.07813 13.7049 9.49286 12.9621C9.49368 12.9608 9.49451 12.9598 9.49547 12.9584C9.82575 12.3668 10.3464 11.8923 10.9612 11.6221C11.2196 11.5082 11.4937 11.4298 11.7766 11.389C12.5417 11.2782 13.2239 11.1045 13.8333 10.8816C13.9168 10.8937 14.0064 10.9074 14.1049 10.9247C14.5618 11.0056 15.0466 11.1223 15.6308 11.2921C17.0097 11.6929 18.2715 12.4364 19.1833 13.3856C19.5736 13.792 19.9087 14.3078 20.2377 15.0089C20.4242 15.4062 20.9127 15.5826 21.31 15.3961C21.6886 15.2183 21.8674 14.7869 21.7255 14.3924C21.4057 13.5018 21.0353 12.8082 20.5596 12.2094C19.6471 11.0604 18.3824 10.106 16.8009 9.37222C16.7032 9.32676 16.6018 9.28199 16.4965 9.23736C16.5315 9.20303 16.5658 9.16842 16.5998 9.13381C16.6855 9.13203 16.7658 9.13107 16.8413 9.13107C17.2224 9.13107 17.5322 9.1529 17.8164 9.19973C19.1151 9.41383 20.0983 9.97509 20.7387 10.8679C20.9943 11.2245 21.5065 11.3092 21.8634 11.0533C22.1877 10.8209 22.2931 10.379 22.1086 10.0256C21.7085 9.25974 21.2444 8.69079 20.6475 8.23445C19.9057 7.66742 19.013 7.23456 18.0465 6.97006C18.1733 6.6814 18.2794 6.39232 18.3691 6.10723C19.6126 5.88269 20.756 5.39188 21.6868 4.68052C22.2837 4.22445 22.7478 3.65536 23.1477 2.88948ZM17.166 8.47738C17.3887 8.18377 17.5823 7.88069 17.7503 7.57335C18.6823 7.81161 19.5413 8.21865 20.2473 8.75836C20.7648 9.15386 21.1706 9.6536 21.5242 10.3308C21.5577 10.395 21.5385 10.4754 21.4795 10.5175C21.4139 10.5646 21.3215 10.5493 21.2744 10.4839C20.5286 9.44363 19.4013 8.79269 17.9235 8.54907C17.69 8.51062 17.4441 8.48727 17.166 8.47738ZM14.884 10.4129C15.2736 10.2043 15.6251 9.97248 15.9421 9.72309C16.1529 9.80562 16.3445 9.8872 16.5235 9.97014C18.0109 10.6602 19.1953 11.5516 20.0434 12.6194C20.473 13.1602 20.8104 13.7943 21.1052 14.6153C21.1308 14.6867 21.0978 14.7676 21.03 14.7994C20.9576 14.8332 20.8688 14.8016 20.8344 14.7287C20.4739 13.9608 20.1004 13.3888 19.6588 12.929C18.6679 11.8977 17.3029 11.0916 15.8146 10.6591C15.4778 10.5612 15.172 10.4802 14.884 10.4129ZM10.8401 19.737C11.3538 19.0327 11.2976 18.0231 10.7177 17.3812C10.7108 17.3738 10.7044 17.3661 10.6974 17.3587C11.1246 17.1737 11.5231 16.9114 11.9125 16.6553C12.6715 16.1556 13.4564 15.6389 14.4933 15.6389C15.1564 15.6389 15.7674 16.1232 15.7674 16.8238C15.7674 17.2049 15.5911 17.5534 15.2839 17.78C14.9539 18.0232 14.9367 18.3516 14.9241 18.5916C14.8926 19.1955 14.4784 19.7275 13.8511 19.7885C13.3662 19.8357 13.0251 20.1272 12.9386 20.5688C12.8287 21.1295 12.3211 21.5305 11.7545 21.5222C10.9623 21.5107 9.22109 21.3543 7.93555 20.2941C8.93215 20.5293 10.1507 20.6819 10.8401 19.737ZM1.39747 11.2131C1.39596 10.2893 1.54098 9.38636 1.82978 8.51913C1.83912 8.53918 1.84915 8.55909 1.85876 8.57914C2.378 9.658 3.19208 10.5723 4.16121 11.2687C5.45622 12.1993 6.99073 12.7615 8.55381 13.0375C8.56919 13.0403 8.70871 13.0734 8.71338 13.0644C8.42087 13.7816 8.36045 14.5583 8.54076 15.3102C8.54213 15.3162 8.43502 15.3729 8.42568 15.3784C8.25278 15.4792 8.07384 15.5705 7.89243 15.6545C7.73011 15.7298 7.65636 15.9295 7.73189 16.0923C7.8077 16.2553 8.00779 16.3276 8.1697 16.2525C8.35331 16.1674 8.74263 15.9569 8.75623 15.9489C9.05876 16.6373 9.54505 17.2241 10.1128 17.7107C10.1134 17.7114 10.1141 17.7119 10.1148 17.7126C10.8152 18.3063 10.5942 19.4884 9.71451 19.7687C8.90606 20.0263 7.79328 19.6168 7.03564 19.3325C5.71618 18.8375 4.52733 18.0238 3.58114 16.9563C3.93572 17.0023 4.29868 17.025 4.65257 17.0266C5.412 17.0297 6.1717 16.9213 6.90284 16.7178C7.07395 16.6703 7.1797 16.4835 7.13177 16.3118C7.08412 16.1402 6.89721 16.0349 6.72596 16.0828C6.03039 16.2763 5.30901 16.3731 4.58693 16.3665C4.06481 16.3665 3.5431 16.3022 3.03278 16.1935C3.01095 16.1889 2.98925 16.1839 2.96755 16.179C1.94322 14.7202 1.40091 13.0059 1.39747 11.2131ZM18.1617 3.18144C18.1391 5.14249 17.5612 7.11948 16.2104 8.58161C16.2099 8.58203 16.2097 8.58244 16.2092 8.58299C15.023 9.84051 13.367 10.4927 11.6824 10.7366C11.4087 10.7761 11.1415 10.8448 10.8854 10.9412C10.866 10.9486 10.6998 10.7826 10.6824 10.7673C9.93712 10.1112 9.30431 9.31715 8.82077 8.4506C8.46138 7.80708 8.18069 7.11906 7.99323 6.40605C7.94709 6.23 7.76678 6.1248 7.59072 6.17108C7.41467 6.2175 7.30947 6.39768 7.35589 6.57359C7.63027 7.61097 8.08318 8.59851 8.6866 9.48565C9.12221 10.1262 9.63568 10.7138 10.2125 11.2307C10.2224 11.2396 10.232 11.2485 10.2419 11.2572C9.75804 11.5557 9.34235 11.964 9.03418 12.446C8.85154 12.4221 8.66958 12.3911 8.48885 12.3561C8.48336 12.3551 8.478 12.3542 8.47251 12.3531C7.35905 12.1567 6.24765 11.7513 5.26396 11.1954C3.86266 10.4042 2.72187 9.19341 2.19041 7.65698C2.18725 7.64819 2.1845 7.63926 2.18148 7.63061C2.68424 6.54064 3.42664 5.54212 4.3348 4.73614C5.146 4.01612 6.0959 3.44428 7.10623 3.06457C7.08672 3.23568 7.07203 3.40734 7.06173 3.57955C7.02795 4.13107 7.04319 4.68642 7.1054 5.23533C7.12628 5.41907 7.3092 5.55558 7.4913 5.52221C7.65966 5.49144 7.77982 5.33187 7.76046 5.16103C7.67902 4.44527 7.68452 3.72032 7.77763 3.00566C7.78504 2.94908 7.79301 2.89277 7.80152 2.83647C8.56795 2.62018 9.36089 2.51045 10.1612 2.51045H17.4999C17.6779 2.51045 17.8451 2.58008 17.97 2.70669C18.0957 2.83372 18.1638 3.00236 18.1617 3.18144ZM22.5634 2.58447C22.2096 3.26178 21.804 3.76151 21.2865 4.15688C20.5161 4.74575 19.5824 5.16968 18.5622 5.39655C18.6326 5.09003 18.6883 4.7739 18.729 4.46546C18.7319 4.4428 18.7356 4.42028 18.7384 4.39762C18.815 4.38856 18.8896 4.37812 18.9626 4.3659C20.4403 4.12255 21.5678 3.47161 22.3137 2.43135C22.3619 2.36419 22.4561 2.3528 22.5185 2.3977C22.5777 2.44 22.5969 2.5202 22.5634 2.58447Z" fill="black" stroke="black" stroke-width="0.3"/>
</svg>
