<svg width="24" height="24" viewBox="0 0 24 24" fill="none" xmlns="http://www.w3.org/2000/svg">
<g clip-path="url(#clip0_119_696)">
<path d="M6.39903 10.4482L6.39842 10.4479C5.58209 10.0829 4.56954 10.6286 4.09381 11.6905C3.61822 12.752 3.88479 13.8705 4.70136 14.2373C4.87301 14.3141 5.05325 14.3506 5.23536 14.3506C5.92006 14.3506 6.63073 13.8337 7.00601 12.9948C7.48156 11.9333 7.21498 10.8148 6.39903 10.4482ZM6.32201 12.6885C6.02848 13.3446 5.42651 13.7407 5.00783 13.5534C4.58928 13.3654 4.4839 12.6526 4.77772 11.9969C5.02217 11.4513 5.47976 11.0856 5.86775 11.0856C5.94608 11.0856 6.02164 11.1005 6.09195 11.1318C6.51045 11.3198 6.61587 12.0326 6.32201 12.6885ZM23.6516 11.8329L23.1972 11.3772C23.1717 11.3519 23.1664 11.3228 23.1664 11.3029C23.1664 11.283 23.1717 11.2539 23.1985 11.2273L23.6512 10.7732C23.8755 10.5489 23.9991 10.2498 23.9991 9.93094C23.9991 9.61209 23.8755 9.31298 23.6512 9.08864C23.1874 8.62481 22.4314 8.62453 21.9651 9.08878L20.8977 10.1575H19.9229C19.7465 9.47072 19.1227 8.96161 18.3822 8.96161H15.4727C13.808 7.53487 12.7935 6.69389 11.6705 6.15797C10.5507 5.6235 9.35787 5.40478 7.2867 5.35566C7.10787 5.29055 6.92164 5.24287 6.72842 5.21348C5.92794 5.09151 5.21801 5.26973 4.61839 5.74261C3.39912 6.70416 3.16451 8.43455 3.12167 8.94192C2.98358 10.5751 2.42248 11.5157 1.12039 12.297C0.549357 12.6398 0.167279 13.2803 0.0444195 14.1006C-0.0799868 14.9317 0.058107 15.937 0.443841 17.008C0.813216 18.0316 1.68233 18.6286 3.02712 18.7824C3.28058 18.8115 3.54026 18.8236 3.80065 18.8236C4.63278 18.8236 5.47062 18.6992 6.12434 18.6022C6.22292 18.5875 6.31756 18.5735 6.40803 18.5604C6.68708 18.5201 6.96725 18.429 7.23931 18.294C9.48997 18.1475 11.0855 17.8189 12.4037 17.2309C13.6728 16.6649 14.6319 15.8922 15.8462 14.914C16.3197 14.5326 16.8531 14.1029 17.4582 13.644H18.3822C19.1226 13.644 19.7465 13.1349 19.9228 12.4481H20.8976L21.9658 13.5175C22.1985 13.7491 22.5037 13.865 22.8087 13.865C23.114 13.8649 23.4191 13.7489 23.6511 13.5169C24.1156 13.0527 24.1156 12.297 23.6516 11.8329ZM6.30111 17.8189C6.20989 17.832 6.11403 17.8462 6.01428 17.8611C4.42897 18.0964 1.77542 18.4904 1.14884 16.754C0.412388 14.7093 0.797607 13.3649 1.50603 12.9397C3.02469 12.0285 3.70911 10.8885 3.86834 9.0052L3.86839 9.00516C3.94348 8.11608 4.30184 6.94673 5.0824 6.33112C5.42351 6.06211 5.81848 5.92673 6.26019 5.92673C6.3755 5.92673 6.49404 5.93592 6.61564 5.95444C7.42287 6.07725 8.05831 6.61537 8.50437 7.55377C8.86165 8.30536 9.09401 9.32845 9.15865 10.4342C9.20651 11.2627 9.02426 11.7053 8.84797 12.1335C8.63492 12.6508 8.41461 13.1858 8.68493 14.176C8.86573 14.8382 8.67701 15.686 8.18014 16.4439C7.67979 17.2071 6.97719 17.7211 6.30111 17.8189ZM19.2233 12.0523C19.2233 12.5168 18.846 12.8947 18.3822 12.8947H17.2071L17.107 12.9703C16.451 13.4648 15.8799 13.9247 15.3762 14.3306C13.1843 16.0963 11.9803 17.066 8.34331 17.4498C8.51019 17.2689 8.66595 17.0699 8.80695 16.8548C9.41979 15.9201 9.64451 14.8449 9.40798 13.9787C9.20492 13.235 9.34592 12.8926 9.54101 12.4189C9.72973 11.9606 9.96462 11.3902 9.90692 10.3908C9.85723 9.54183 9.69111 8.30461 9.18134 7.23211C8.9825 6.8137 8.74479 6.45577 8.47311 6.16116C11.3061 6.37584 12.2422 7.1782 15.0902 9.62086L15.1955 9.71119H18.3823C18.8461 9.71119 19.2233 10.0891 19.2233 10.5536V12.0523H19.2233ZM23.1213 12.9872C22.949 13.1595 22.668 13.1592 22.4953 12.9874L21.2082 11.6989H19.9727V10.907H21.2082L22.4946 9.61917C22.6678 9.44648 22.9489 9.4463 23.1212 9.61856C23.2041 9.70139 23.2497 9.81234 23.2497 9.93094C23.2497 10.0495 23.204 10.1605 23.1208 10.2437L22.669 10.6968C22.5064 10.8583 22.4169 11.0736 22.4169 11.3029C22.4169 11.5322 22.5064 11.7474 22.6677 11.9076L23.1212 12.3624C23.2935 12.5347 23.2935 12.815 23.1213 12.9872Z" fill="black" stroke="black" stroke-width="0.3"/>
</g>
<defs>
<clipPath id="clip0_119_696">
<rect width="24" height="24" fill="white"/>
</clipPath>
</defs>
</svg>
