<svg width="24" height="24" viewBox="0 0 24 24" fill="none" xmlns="http://www.w3.org/2000/svg">
<path d="M18.1555 16.4639C17.5502 16.6933 16.9257 16.8681 16.2893 16.9861C16.2092 17.0016 16.1378 17.0463 16.089 17.1116C16.0401 17.1768 16.0173 17.2579 16.0249 17.3391C16.0325 17.4203 16.0701 17.4957 16.1302 17.5507C16.1904 17.6057 16.2689 17.6364 16.3504 17.6367C16.3712 17.6366 16.3919 17.6346 16.4123 17.6307C17.0874 17.5054 17.7499 17.3198 18.3919 17.0761C18.4321 17.0606 18.4689 17.0373 18.5 17.0075C18.5312 16.9778 18.5563 16.9422 18.5737 16.9028C18.5912 16.8634 18.6007 16.821 18.6017 16.7779C18.6028 16.7348 18.5953 16.692 18.5798 16.6518C18.5643 16.6116 18.541 16.5748 18.5112 16.5436C18.4815 16.5124 18.4459 16.4874 18.4065 16.47C18.3671 16.4525 18.3247 16.443 18.2816 16.442C18.2385 16.4409 18.1957 16.4484 18.1555 16.4639Z" fill="black" stroke="black" stroke-width="0.3"/>
<path d="M20.3319 5.11463C16.9699 3.01519 11.0552 4.93125 7.00875 7.212C2.16019 9.66694 1.07287 12.0308 0.920063 13.4183C0.901156 13.4599 0.891131 13.5051 0.890625 13.5508V16.7383C0.890625 18.5366 2.22187 19.7925 4.12875 19.7925C5.54006 19.7925 6.138 19.4983 6.83025 19.1574C7.49522 18.811 8.20421 18.5565 8.93775 18.4011C9.9765 18.1718 11.2048 18.3609 12.5057 18.5616C13.8744 18.7727 15.2899 18.9909 16.6236 18.7367C20.5449 17.9867 22.9627 15.8756 23.0998 13.0838C23.1025 13.067 23.1038 13.0501 23.1037 13.0331V9.9525C23.1037 9.94631 23.1022 9.94069 23.1021 9.93469C23.1726 8.07975 22.1381 6.24244 20.3319 5.11463ZM7.3125 7.79419L7.32562 7.78725C10.0684 6.24019 13.6856 4.85419 16.6747 4.85419C17.9246 4.85419 19.065 5.09681 19.9851 5.67131C21.7807 6.79256 22.7226 8.68444 22.3851 10.4914C21.9694 12.7163 19.8246 14.3561 16.5007 14.9914C15.2777 15.225 13.9192 15.0148 12.6052 14.8125C11.2421 14.6023 9.95512 14.4039 8.79562 14.6601C8.01049 14.8259 7.25163 15.0979 6.54 15.4688C5.87081 15.798 5.38725 16.0359 4.12856 16.0359C2.86987 16.0359 1.85981 15.33 1.60837 14.2793C1.2375 12.7264 2.54175 10.2075 7.3125 7.79419ZM22.4466 13.0194C22.3419 15.5044 20.1187 17.4 16.5 18.0921C15.2779 18.3253 13.9192 18.1155 12.6052 17.9128C11.2417 17.7026 9.95419 17.5039 8.79562 17.7604C8.01054 17.9262 7.25169 18.1981 6.54 18.5687C5.87063 18.8983 5.38706 19.1362 4.12837 19.1362C2.58412 19.1362 1.5465 18.1725 1.5465 16.7383V15.5732C1.86907 15.9368 2.26735 16.2254 2.71337 16.4186C3.15938 16.6118 3.6423 16.705 4.12819 16.6916C5.53969 16.6916 6.13725 16.3976 6.82931 16.0569C7.49441 15.7102 8.2036 15.4555 8.93737 15.3C9.97612 15.0701 11.2046 15.2599 12.5053 15.4603C13.8741 15.6713 15.2895 15.8897 16.623 15.6349C19.4261 15.0998 21.4605 13.8724 22.4475 12.1748V12.9975C22.4467 13.0048 22.4462 13.0125 22.4458 13.0194H22.4466Z" fill="black" stroke="black" stroke-width="0.3"/>
<path d="M16.9454 9.09375C17.7121 9.09375 18.3126 8.65631 18.3126 8.09775C18.3126 7.53919 17.7126 7.10156 16.9454 7.10156C16.1781 7.10156 15.5781 7.539 15.5781 8.09775C15.5781 8.6565 16.1787 9.09375 16.9454 9.09375ZM16.9454 7.75781C17.3727 7.75781 17.6564 7.96237 17.6564 8.09775C17.6564 8.23312 17.3727 8.4375 16.9454 8.4375C16.5181 8.4375 16.2344 8.23294 16.2344 8.09775C16.2344 7.96256 16.5188 7.75781 16.9454 7.75781Z" fill="black" stroke="black" stroke-width="0.3"/>
</svg>
