<svg width="30" height="30" viewBox="0 0 30 30" fill="none" xmlns="http://www.w3.org/2000/svg">
<path d="M1.95651 2.08281C-0.393759 4.52404 0.0872607 7.11731 0.0872607 14.9956C0.0872607 21.5379 -1.05423 28.0965 4.91989 29.6405C6.78539 30.1203 23.3145 30.1203 25.1775 29.638C27.6649 28.9962 29.6886 26.9787 29.9653 23.4608C30.0039 22.9698 30.0039 7.03008 29.964 6.52912C29.6699 2.78191 27.3633 0.622305 24.3239 0.184901C23.6273 0.0839621 23.4877 0.0540542 19.9137 0.0478234C7.2365 0.0540542 4.45756 -0.510458 1.95651 2.08281Z" fill="url(#paint0_linear_148_269)"/>
<path d="M15.0394 3.95988C10.5146 3.95988 6.21784 3.55737 4.57664 7.7694C3.89873 9.50905 3.99717 11.7683 3.99717 15.0034C3.99717 17.8421 3.9062 20.5102 4.57664 22.2361C6.2141 26.4506 10.5458 26.0469 15.0369 26.0469C19.3699 26.0469 23.8374 26.498 25.4985 22.2361C26.1777 20.479 26.078 18.2534 26.078 15.0034C26.078 10.6892 26.316 7.90399 24.2237 5.81292C22.1052 3.69444 19.2403 3.95988 15.0344 3.95988H15.0394ZM14.05 5.95C23.4884 5.93505 24.6897 4.88578 24.0268 19.4622C23.7912 24.6175 19.8658 24.0518 15.0407 24.0518C6.24276 24.0518 5.98979 23.8001 5.98979 14.9984C5.98979 6.09456 6.68764 5.95499 14.05 5.94751V5.95ZM20.9338 7.78311C20.2023 7.78311 19.6091 8.37628 19.6091 9.10778C19.6091 9.83928 20.2023 10.4325 20.9338 10.4325C21.6653 10.4325 22.2585 9.83928 22.2585 9.10778C22.2585 8.37628 21.6653 7.78311 20.9338 7.78311ZM15.0394 9.33209C11.9078 9.33209 9.36939 11.8718 9.36939 15.0034C9.36939 18.135 11.9078 20.6734 15.0394 20.6734C18.171 20.6734 20.7082 18.135 20.7082 15.0034C20.7082 11.8718 18.171 9.33209 15.0394 9.33209ZM15.0394 11.3222C19.9057 11.3222 19.9119 18.6846 15.0394 18.6846C10.1744 18.6846 10.1669 11.3222 15.0394 11.3222Z" fill="white"/>
<defs>
<linearGradient id="paint0_linear_148_269" x1="2.01386" y1="28.0455" x2="29.8101" y2="3.98816" gradientUnits="userSpaceOnUse">
<stop stop-color="#FFDD55"/>
<stop offset="0.5" stop-color="#FF543E"/>
<stop offset="1" stop-color="#C837AB"/>
</linearGradient>
</defs>
</svg>
