<svg width="24" height="24" viewBox="0 0 24 24" fill="none" xmlns="http://www.w3.org/2000/svg">
<path d="M4.80078 0C4.27054 0.000635143 3.7622 0.211553 3.38727 0.586488C3.01233 0.961423 2.80142 1.46976 2.80078 2V22C2.80142 22.5302 3.01233 23.0386 3.38727 23.4135C3.7622 23.7884 4.27054 23.9994 4.80078 24H19.2008C19.731 23.9994 20.2394 23.7884 20.6143 23.4135C20.9892 23.0386 21.2001 22.5302 21.2008 22V2C21.2001 1.46976 20.9892 0.961423 20.6143 0.586488C20.2394 0.211553 19.731 0.000635143 19.2008 0L4.80078 0ZM19.2008 23.2H4.80078C4.48252 23.2 4.1773 23.0736 3.95225 22.8485C3.72721 22.6235 3.60078 22.3183 3.60078 22V14.4H20.4008V22C20.4008 22.3183 20.2744 22.6235 20.0493 22.8485C19.8243 23.0736 19.519 23.2 19.2008 23.2ZM12.8008 4.8C12.9069 4.8 13.0086 4.75786 13.0836 4.68284C13.1586 4.60783 13.2008 4.50609 13.2008 4.4V3.7128C14.5723 5.03303 15.6011 6.66788 16.198 8.4756C15.406 8.8336 14.0864 9.2 12.0008 9.2C9.91518 9.2 8.59558 8.8336 7.80358 8.4756C8.53901 6.25488 9.92153 4.30472 11.7736 2.8756C11.8391 2.82681 11.9185 2.80045 12.0002 2.80045C12.0818 2.80045 12.1613 2.82681 12.2268 2.8756C12.2808 2.9156 12.3416 2.9656 12.4008 3.0124V4.4C12.4008 4.50609 12.4429 4.60783 12.5179 4.68284C12.593 4.75786 12.6947 4.8 12.8008 4.8ZM17.5944 12.142L17.6224 12.1584C17.8603 12.3 18.0572 12.5012 18.1936 12.742C18.3301 12.9829 18.4015 13.2552 18.4008 13.532V13.6H17.55C17.5804 13.1712 17.6008 12.7404 17.6008 12.312C17.6008 12.2536 17.5952 12.2 17.5944 12.142ZM7.20078 12.312C7.19888 11.2795 7.32614 10.2509 7.57958 9.25C8.98757 9.79592 10.4915 10.0511 12.0008 10C13.51 10.0511 15.014 9.79592 16.422 9.25C16.6754 10.2509 16.8027 11.2795 16.8008 12.312C16.8008 12.7404 16.78 13.1716 16.7484 13.6H7.25318C7.22158 13.1716 7.20078 12.7404 7.20078 12.312ZM6.45158 13.6H5.60078V13.532C5.60023 13.2555 5.67168 12.9835 5.80809 12.743C5.9445 12.5024 6.14118 12.3015 6.37878 12.16L6.40718 12.1432C6.40718 12.2008 6.40078 12.2548 6.40078 12.3132C6.40078 12.7404 6.42118 13.1712 6.45158 13.6ZM20.4008 2V13.6H19.2008V13.532C19.2022 13.117 19.0954 12.7089 18.8908 12.3478C18.6863 11.9867 18.3911 11.6853 18.0344 11.4732L17.5544 11.184C17.4205 9.43602 16.9199 7.73585 16.0852 6.19425C15.2504 4.65265 14.1003 3.30422 12.7096 2.2368C12.5049 2.08353 12.2561 2.0007 12.0004 2.0007C11.7447 2.0007 11.4959 2.08353 11.2912 2.2368C9.90096 3.30445 8.75123 4.65298 7.91689 6.19457C7.08256 7.73616 6.58233 9.43621 6.44878 11.184L5.96638 11.4736C5.60987 11.6857 5.31484 11.9871 5.11043 12.3481C4.90602 12.7091 4.79929 13.1172 4.80078 13.532V13.6H3.60078V2C3.60078 1.68174 3.72721 1.37652 3.95225 1.15147C4.1773 0.926428 4.48252 0.8 4.80078 0.8H19.2008C19.519 0.8 19.8243 0.926428 20.0493 1.15147C20.2744 1.37652 20.4008 1.68174 20.4008 2Z" fill="black"/>
<path d="M13.7888 18.2292L14.72 18.48C14.7538 18.4889 14.7886 18.4935 14.8236 18.4936C14.9207 18.4936 15.0145 18.4583 15.0875 18.3944C15.1605 18.3304 15.2077 18.242 15.2204 18.1458C15.2331 18.0496 15.2103 17.952 15.1564 17.8713C15.1024 17.7906 15.021 17.7322 14.9272 17.7072L14.7672 17.6644L14.97 17.5472C15.0611 17.4937 15.1274 17.4064 15.1544 17.3043C15.1814 17.2022 15.1669 17.0935 15.1141 17.0021C15.0613 16.9106 14.9745 16.8437 14.8725 16.8161C14.7706 16.7884 14.6618 16.8021 14.57 16.8544L14.3672 16.9716L14.41 16.8116C14.4375 16.7091 14.4231 16.5999 14.3701 16.508C14.3171 16.4161 14.2297 16.349 14.1272 16.3216C14.0247 16.2941 13.9155 16.3084 13.8237 16.3615C13.7318 16.4145 13.6647 16.5019 13.6372 16.6044L13.3872 17.5372L12.4 18.1072V16.9656L13.0828 16.2828C13.1557 16.2073 13.196 16.1063 13.1951 16.0014C13.1942 15.8965 13.1521 15.7962 13.078 15.722C13.0038 15.6479 12.9035 15.6058 12.7986 15.6049C12.6937 15.604 12.5927 15.6443 12.5172 15.7172L12.4 15.8344V15.6C12.4 15.4939 12.3579 15.3921 12.2829 15.3171C12.2079 15.2421 12.1061 15.2 12 15.2C11.8939 15.2 11.7922 15.2421 11.7172 15.3171C11.6422 15.3921 11.6 15.4939 11.6 15.6V15.8344L11.4828 15.7172C11.4074 15.6443 11.3063 15.604 11.2015 15.6049C11.0966 15.6058 10.9963 15.6479 10.9221 15.722C10.8479 15.7962 10.8059 15.8965 10.805 16.0014C10.804 16.1063 10.8444 16.2073 10.9172 16.2828L11.6 16.9656V18.1072L10.6116 17.5364L10.36 16.6036C10.3325 16.5011 10.2655 16.4137 10.1736 16.3607C10.0817 16.3076 9.9725 16.2933 9.87002 16.3208C9.76754 16.3482 9.68017 16.4153 9.62714 16.5072C9.5741 16.5991 9.55975 16.7083 9.58722 16.8108L9.63002 16.9708L9.42722 16.8536C9.3354 16.8013 9.22665 16.7876 9.12472 16.8153C9.02278 16.8429 8.93593 16.9098 8.88311 17.0013C8.8303 17.0927 8.81581 17.2014 8.84281 17.3035C8.8698 17.4056 8.9361 17.4929 9.02722 17.5464L9.23002 17.6636L9.07002 17.7064C8.97629 17.7314 8.89487 17.7897 8.84093 17.8704C8.78699 17.9511 8.76421 18.0486 8.77684 18.1448C8.78946 18.241 8.83663 18.3293 8.90956 18.3934C8.98248 18.4574 9.07619 18.4927 9.17322 18.4928C9.20833 18.4927 9.24329 18.4882 9.27722 18.4792L10.2096 18.2292L11.2 18.8L10.2112 19.3708L9.28002 19.12C9.22928 19.1063 9.17635 19.1029 9.12427 19.1097C9.07218 19.1166 9.02195 19.1336 8.97645 19.1599C8.93095 19.1861 8.89107 19.2211 8.85908 19.2628C8.82709 19.3044 8.80363 19.352 8.79002 19.4028C8.77642 19.4535 8.77294 19.5064 8.77979 19.5585C8.78664 19.6106 8.80368 19.6608 8.82994 19.7063C8.8562 19.7518 8.89116 19.7917 8.93284 19.8237C8.97451 19.8557 9.02208 19.8791 9.07282 19.8928L9.23282 19.9356L9.03002 20.0528C8.98416 20.0788 8.94392 20.1137 8.91159 20.1554C8.87927 20.1971 8.85552 20.2448 8.8417 20.2957C8.82788 20.3466 8.82426 20.3997 8.83106 20.452C8.83786 20.5043 8.85494 20.5548 8.88132 20.6005C8.90769 20.6462 8.94285 20.6862 8.98475 20.7182C9.02665 20.7503 9.07448 20.7737 9.12548 20.7872C9.17648 20.8007 9.22965 20.8039 9.28191 20.7968C9.33418 20.7896 9.38451 20.7722 9.43002 20.7456L9.63282 20.6284L9.59002 20.7884C9.57641 20.8391 9.57293 20.892 9.57977 20.9441C9.58662 20.9962 9.60366 21.0464 9.62992 21.0919C9.65618 21.1374 9.69115 21.1773 9.73283 21.2093C9.77451 21.2413 9.82208 21.2648 9.87282 21.2784C9.90662 21.2873 9.94145 21.2919 9.97642 21.292C10.0645 21.292 10.1501 21.2629 10.2199 21.2093C10.2898 21.1557 10.34 21.0806 10.3628 20.9956L10.6128 20.0628L11.6 19.4928V20.6344L10.9172 21.3172C10.8444 21.3926 10.804 21.4936 10.805 21.5985C10.8059 21.7034 10.8479 21.8037 10.9221 21.8779C10.9963 21.952 11.0966 21.9941 11.2015 21.995C11.3063 21.9959 11.4074 21.9556 11.4828 21.8828L11.6 21.7656V22C11.6 22.106 11.6422 22.2078 11.7172 22.2828C11.7922 22.3578 11.8939 22.4 12 22.4C12.1061 22.4 12.2079 22.3578 12.2829 22.2828C12.3579 22.2078 12.4 22.106 12.4 22V21.7656L12.5172 21.8828C12.5927 21.9556 12.6937 21.9959 12.7986 21.995C12.9035 21.9941 13.0038 21.952 13.078 21.8779C13.1521 21.8037 13.1942 21.7034 13.1951 21.5985C13.196 21.4936 13.1557 21.3926 13.0828 21.3172L12.4 20.6344V19.4928L13.3884 20.0636L13.6384 20.9964C13.6612 21.0814 13.7115 21.1565 13.7813 21.2101C13.8512 21.2637 13.9368 21.2928 14.0248 21.2928C14.0598 21.2927 14.0946 21.2881 14.1284 21.2792C14.1792 21.2656 14.2267 21.2421 14.2684 21.2101C14.3101 21.1781 14.3451 21.1382 14.3713 21.0927C14.3976 21.0472 14.4146 20.997 14.4215 20.9449C14.4283 20.8928 14.4248 20.8399 14.4112 20.7892L14.3684 20.6292L14.5712 20.7464C14.6167 20.773 14.6671 20.7904 14.7193 20.7976C14.7716 20.8047 14.8248 20.8015 14.8758 20.788C14.9268 20.7745 14.9746 20.7511 15.0165 20.719C15.0584 20.687 15.0936 20.647 15.1199 20.6013C15.1463 20.5556 15.1634 20.5051 15.1702 20.4528C15.177 20.4005 15.1734 20.3474 15.1595 20.2965C15.1457 20.2456 15.122 20.1979 15.0896 20.1562C15.0573 20.1145 15.0171 20.0796 14.9712 20.0536L14.7684 19.9364L14.9284 19.8936C15.031 19.8659 15.1184 19.7987 15.1714 19.7066C15.2244 19.6145 15.2387 19.5051 15.211 19.4026C15.1834 19.3 15.1161 19.2126 15.024 19.1596C14.932 19.1066 14.8226 19.0923 14.72 19.12L13.7876 19.37L12.8 18.8L13.7888 18.2292Z" fill="black"/>
<path d="M10.8016 5.6001C10.5642 5.6001 10.3322 5.67048 10.1349 5.80233C9.93754 5.93419 9.78373 6.12161 9.69291 6.34088C9.60208 6.56015 9.57832 6.80143 9.62462 7.03421C9.67092 7.26698 9.78521 7.4808 9.95303 7.64863C10.1209 7.81645 10.3347 7.93074 10.5675 7.97704C10.8002 8.02334 11.0415 7.99958 11.2608 7.90875C11.4801 7.81793 11.6675 7.66412 11.7993 7.46678C11.9312 7.26944 12.0016 7.03744 12.0016 6.8001C12.0016 6.48184 11.8751 6.17661 11.6501 5.95157C11.425 5.72653 11.1198 5.6001 10.8016 5.6001ZM10.8016 7.2001C10.7225 7.2001 10.6451 7.17664 10.5793 7.13269C10.5136 7.08873 10.4623 7.02626 10.432 6.95317C10.4017 6.88008 10.3938 6.79965 10.4092 6.72206C10.4247 6.64447 10.4628 6.5732 10.5187 6.51725C10.5747 6.46131 10.6459 6.42322 10.7235 6.40778C10.8011 6.39235 10.8815 6.40027 10.9546 6.43055C11.0277 6.46082 11.0902 6.51209 11.1342 6.57787C11.1781 6.64365 11.2016 6.72099 11.2016 6.8001C11.2016 6.90618 11.1594 7.00793 11.0844 7.08294C11.0094 7.15796 10.9076 7.2001 10.8016 7.2001Z" fill="black"/>
<path d="M14.4012 11.2C14.2951 11.2 14.1933 11.2421 14.1183 11.3171C14.0433 11.3921 14.0012 11.4939 14.0012 11.6C14.0012 11.706 13.959 11.8078 13.884 11.8828C13.809 11.9578 13.7073 12 13.6012 12C13.4951 12 13.3933 11.9578 13.3183 11.8828C13.2433 11.8078 13.2012 11.706 13.2012 11.6C13.2012 11.4939 13.159 11.3921 13.084 11.3171C13.009 11.2421 12.9073 11.2 12.8012 11.2C12.6951 11.2 12.5933 11.2421 12.5183 11.3171C12.4433 11.3921 12.4012 11.4939 12.4012 11.6C12.4012 11.706 12.359 11.8078 12.284 11.8828C12.209 11.9578 12.1073 12 12.0012 12C11.8951 12 11.7933 11.9578 11.7183 11.8828C11.6433 11.8078 11.6012 11.706 11.6012 11.6C11.6012 11.4939 11.559 11.3921 11.484 11.3171C11.409 11.2421 11.3073 11.2 11.2012 11.2C11.0951 11.2 10.9933 11.2421 10.9183 11.3171C10.8433 11.3921 10.8012 11.4939 10.8012 11.6C10.8012 11.706 10.759 11.8078 10.684 11.8828C10.609 11.9578 10.5073 12 10.4012 12C10.2951 12 10.1933 11.9578 10.1183 11.8828C10.0433 11.8078 10.0012 11.706 10.0012 11.6C10.0012 11.4939 9.95903 11.3921 9.88401 11.3171C9.809 11.2421 9.70726 11.2 9.60117 11.2C9.49509 11.2 9.39334 11.2421 9.31833 11.3171C9.24331 11.3921 9.20117 11.4939 9.20117 11.6C9.20133 11.8315 9.2685 12.0581 9.39456 12.2524C9.52063 12.4466 9.70022 12.6003 9.91165 12.6947C10.1231 12.7892 10.3573 12.8205 10.5862 12.7848C10.815 12.7491 11.0286 12.6479 11.2012 12.4936C11.4209 12.6908 11.7058 12.7999 12.0012 12.7999C12.2965 12.7999 12.5814 12.6908 12.8012 12.4936C12.9738 12.6479 13.1874 12.7491 13.4162 12.7848C13.645 12.8205 13.8793 12.7892 14.0907 12.6947C14.3021 12.6003 14.4817 12.4466 14.6078 12.2524C14.7338 12.0581 14.801 11.8315 14.8012 11.6C14.8012 11.4939 14.759 11.3921 14.684 11.3171C14.609 11.2421 14.5073 11.2 14.4012 11.2Z" fill="black"/>
<path d="M5.0842 3.08269L5.8842 2.28269C5.9224 2.24579 5.95288 2.20165 5.97384 2.15285C5.9948 2.10405 6.00584 2.05156 6.0063 1.99845C6.00676 1.94533 5.99664 1.89266 5.97653 1.8435C5.95642 1.79435 5.92671 1.74968 5.88916 1.71213C5.8516 1.67457 5.80694 1.64487 5.75778 1.62476C5.70862 1.60464 5.65595 1.59452 5.60284 1.59499C5.54973 1.59545 5.49724 1.60648 5.44844 1.62745C5.39964 1.64841 5.3555 1.67888 5.3186 1.71709L4.5186 2.51709C4.4804 2.55398 4.44992 2.59812 4.42896 2.64692C4.408 2.69573 4.39696 2.74821 4.3965 2.80133C4.39604 2.85444 4.40616 2.90711 4.42627 2.95627C4.44638 3.00543 4.47608 3.05009 4.51364 3.08764C4.5512 3.1252 4.59586 3.1549 4.64502 3.17501C4.69418 3.19513 4.74685 3.20525 4.79996 3.20479C4.85307 3.20432 4.90556 3.19329 4.95436 3.17233C5.00316 3.15136 5.0473 3.12089 5.0842 3.08269Z" fill="black"/>
<path d="M7.71704 1.71709L4.91704 4.51709C4.87883 4.55398 4.84836 4.59812 4.8274 4.64692C4.80643 4.69573 4.7954 4.74821 4.79494 4.80133C4.79448 4.85444 4.8046 4.90711 4.82471 4.95627C4.84482 5.00543 4.87452 5.05009 4.91208 5.08764C4.94964 5.1252 4.9943 5.1549 5.04346 5.17501C5.09261 5.19513 5.14529 5.20525 5.1984 5.20479C5.25151 5.20432 5.304 5.19329 5.3528 5.17233C5.4016 5.15136 5.44574 5.12089 5.48264 5.08269L8.28264 2.28269C8.32084 2.24579 8.35131 2.20165 8.37228 2.15285C8.39324 2.10405 8.40428 2.05156 8.40474 1.99845C8.4052 1.94533 8.39508 1.89266 8.37497 1.8435C8.35485 1.79435 8.32515 1.74968 8.2876 1.71213C8.25004 1.67457 8.20538 1.64487 8.15622 1.62476C8.10706 1.60464 8.05439 1.59452 8.00128 1.59499C7.94817 1.59545 7.89568 1.60648 7.84688 1.62745C7.79807 1.64841 7.75394 1.67888 7.71704 1.71709Z" fill="black"/>
</svg>
