<svg width="48" height="48" viewBox="0 0 48 48" fill="none" xmlns="http://www.w3.org/2000/svg">
<path d="M16.4999 27.75C16.4999 25.2283 17.2477 22.7632 18.6487 20.6665C20.0497 18.5698 22.0409 16.9356 24.3707 15.9705C26.7005 15.0055 29.2641 14.753 31.7373 15.245C34.2106 15.737 36.4824 16.9513 38.2655 18.7344C40.0486 20.5175 41.263 22.7893 41.7549 25.2626C42.2469 27.7359 41.9944 30.2995 41.0294 32.6292C40.0644 34.959 38.4302 36.9503 36.3334 38.3512C34.2367 39.7522 31.7716 40.5 29.2499 40.5H14.2499C13.052 40.499 11.8688 40.2372 10.7823 39.7327C9.69587 39.2282 8.73231 38.4932 7.95861 37.5787C7.18491 36.6642 6.61963 35.5922 6.30205 34.4372C5.98448 33.2822 5.92223 32.0719 6.11963 30.8904C6.31704 29.7089 6.76936 28.5846 7.44516 27.5956C8.12096 26.6066 9.00403 25.7766 10.033 25.1633C11.0619 24.55 12.2121 24.1681 13.4036 24.0443C14.595 23.9204 15.7991 24.0574 16.9323 24.4459" stroke="white" stroke-width="2" stroke-linecap="round" stroke-linejoin="round"/>
<path d="M14.9369 10.6367L14.1555 6.20508" stroke="white" stroke-width="2" stroke-linecap="round" stroke-linejoin="round"/>
<path d="M9.12857 14.336L5.44238 11.7549" stroke="white" stroke-width="2" stroke-linecap="round" stroke-linejoin="round"/>
<path d="M7.63696 21.0586L3.20532 21.84" stroke="white" stroke-width="2" stroke-linecap="round" stroke-linejoin="round"/>
<path d="M21.6597 12.1286L24.2408 8.44238" stroke="white" stroke-width="2" stroke-linecap="round" stroke-linejoin="round"/>
<path d="M9.68326 25.3788C8.83884 24.4 8.21516 23.2508 7.85466 22.0093C7.49415 20.7678 7.40528 19.4633 7.59408 18.1844C7.78287 16.9055 8.24492 15.6823 8.94878 14.598C9.65264 13.5137 10.5818 12.5937 11.673 11.9006C12.7643 11.2075 13.992 10.7576 15.2727 10.5815C16.5534 10.4054 17.857 10.5072 19.0948 10.8799C20.3326 11.2527 21.4756 11.8878 22.4461 12.7418C23.4165 13.5959 24.1916 14.649 24.7186 15.8294" stroke="white" stroke-width="2" stroke-linecap="round" stroke-linejoin="round"/>
</svg>
