<svg width="42" height="36" viewBox="0 0 42 36" fill="none" xmlns="http://www.w3.org/2000/svg">
<path d="M22.0607 33.7279L37.2542 18.5344C40.9874 14.8012 41.5382 8.65953 38.0053 4.73622C37.1204 3.75066 36.0439 2.95573 34.8416 2.39993C33.6393 1.84414 32.3364 1.53913 31.0123 1.50352C29.6883 1.46792 28.3708 1.70246 27.1404 2.19284C25.91 2.68321 24.7923 3.41914 23.8557 4.35572L21 7.21142L18.5344 4.74581C14.8012 1.0126 8.65953 0.461826 4.73622 3.9947C3.75066 4.87963 2.95573 5.95608 2.39993 7.15838C1.84414 8.36068 1.53913 9.66361 1.50352 10.9877C1.46792 12.3118 1.70246 13.6292 2.19283 14.8596C2.68321 16.0901 3.41914 17.2077 4.35572 18.1443L19.9394 33.7279C20.2207 34.0092 20.6022 34.1673 21 34.1673C21.3978 34.1673 21.7794 34.0092 22.0607 33.7279V33.7279Z" stroke="white" stroke-width="2" stroke-linecap="round" stroke-linejoin="round"/>
</svg>
