<svg width="24" height="24" viewBox="0 0 24 24" fill="none" xmlns="http://www.w3.org/2000/svg">
<g clip-path="url(#clip0_119_680)">
<path d="M20.8724 7.95703C20.6365 7.93198 20.4247 8.10269 20.3994 8.33864C20.2946 9.31936 19.8678 10.2091 19.1652 10.9117C18.5015 11.5758 17.6617 11.9962 16.7366 12.1274C16.5016 12.1607 16.3382 12.3783 16.3715 12.6133C16.4019 12.8279 16.5859 12.9828 16.7964 12.9828C16.8165 12.9828 16.8368 12.9813 16.8573 12.9784C17.9683 12.8209 18.9766 12.3163 19.773 11.5194C20.616 10.6765 21.1281 9.6082 21.2541 8.43003C21.2793 8.19405 21.1084 7.9823 20.8724 7.95703Z" fill="black" stroke="black" stroke-width="0.2"/>
<path d="M20.9896 3.01044C18.3086 0.329862 13.9462 0.329819 11.2651 3.01052C10.203 4.07297 9.53049 5.41803 9.32011 6.90028C9.03931 8.87509 8.92243 10.8234 7.64316 12.1027C7.62056 12.1307 7.28832 12.4158 7.10678 12.9452C6.93817 13.4333 6.95158 13.9591 7.13737 14.4314L4.66855 16.9004C3.83083 16.0627 2.46786 16.0627 1.63022 16.9003C0.789963 17.7401 0.78992 19.099 1.63013 19.9392C2.12655 20.4357 2.80727 20.638 3.45408 20.5461C3.36221 21.1928 3.56442 21.8737 4.0608 22.37C4.90071 23.2099 6.25969 23.2105 7.09965 22.37C7.93737 21.5323 7.93737 20.1693 7.10029 19.3322C7.10012 19.3321 7.09991 19.3318 7.09969 19.3316L9.56929 16.862C10.4072 17.1914 11.3307 16.9551 11.9023 16.3514C13.1216 15.0843 15.244 14.9437 17.0996 14.68C18.5819 14.4696 19.927 13.7971 20.9896 12.7349C23.6702 10.0539 23.6702 5.69152 20.9896 3.01044ZM6.14982 19.066C5.95122 19.2647 5.99359 19.5979 6.23584 19.7403C6.95648 20.1642 7.08873 21.1655 6.49181 21.7624C5.988 22.2665 5.17288 22.2667 4.6686 21.7623C4.16599 21.2598 4.16599 20.442 4.6686 19.9395C4.83643 19.7716 4.83643 19.4995 4.6686 19.3317C4.50076 19.1639 4.22868 19.1639 4.0608 19.3317C3.55824 19.8342 2.74049 19.8343 2.23793 19.3317C1.73382 18.8275 1.73347 18.0124 2.23793 17.5083C2.83382 16.9123 3.8353 17.0426 4.25988 17.7643C4.40232 18.0065 4.73546 18.049 4.93419 17.8504L7.6188 15.1657C7.82844 15.3757 8.07904 15.5394 8.35314 15.647C8.46069 15.9213 8.62457 16.1719 8.83443 16.3814L6.14982 19.066ZM20.382 12.1272C19.4522 13.0566 18.2755 13.6451 16.9789 13.8292C14.9716 14.1143 12.7047 14.2782 11.281 15.7578C11.2758 15.7632 11.2706 15.7683 11.2652 15.7737C10.5542 16.4848 9.35921 16.1377 9.10849 15.1965C9.06887 15.0476 8.95264 14.9314 8.80384 14.8918C8.09262 14.7023 7.67182 13.9421 7.91958 13.225C8.02739 12.9107 8.23811 12.7257 8.24808 12.7134C9.72617 11.2893 9.88984 9 10.1711 7.02115C10.3552 5.72465 10.9437 4.54791 11.8729 3.61827C14.2189 1.27273 18.036 1.27273 20.3819 3.61827C22.7275 5.96421 22.7275 9.78135 20.382 12.1272Z" fill="black" stroke="black" stroke-width="0.2"/>
</g>
<defs>
<clipPath id="clip0_119_680">
<rect width="24" height="24" fill="white"/>
</clipPath>
</defs>
</svg>
