<svg width="24" height="24" viewBox="0 0 24 24" fill="none" xmlns="http://www.w3.org/2000/svg">
<g clip-path="url(#clip0_119_700)">
<path d="M0.402128 6.33713C4.10802 3.91175 8.15946 3.45942 11.7154 4.99515C14.7332 3.62598 20.3161 6.06104 20.5564 6.1673C20.7135 6.23559 20.8208 6.3922 20.8346 6.57711C20.8493 6.76132 20.7709 6.94894 20.6275 7.07236C19.2617 8.25109 17.7664 9.62534 17.2306 10.2315C17.9043 11.2628 18.4405 12.2554 18.7304 12.992C21.0822 11.6051 23.4718 12.9505 23.5803 13.0131C23.8194 13.1512 23.8894 13.4769 23.7367 13.7413C22.1363 16.5132 20.4595 17.4002 19.5168 17.6839C19.7425 18.642 19.8128 20.5377 18.2124 23.3096C18.0598 23.574 17.7427 23.6763 17.5037 23.5383C17.3951 23.4756 15.0352 22.0788 15.0604 19.3487C14.0203 19.5045 12.3741 19.5104 10.6835 19.3293C10.6737 20.0333 10.337 20.9677 9.6345 22.1844C9.48182 22.4489 9.16481 22.5512 8.92572 22.4131C8.79709 22.3389 5.872 20.6124 5.50443 17.8662C1.825 15.6357 -0.136915 11.6256 0.132949 6.80336C0.143491 6.61635 0.245441 6.43977 0.402128 6.33713ZM19.3347 6.85921C17.747 6.25279 15.0304 5.4477 13.0904 5.69392C14.3026 6.46546 15.5888 7.90125 16.6502 9.38392C17.3272 8.65351 18.5106 7.58496 19.3347 6.85921ZM9.05141 21.1732C9.76212 19.8091 9.68087 19.3087 9.64324 19.1942C8.61143 19.0348 7.60729 18.8018 6.75649 18.4846C7.2732 19.7565 8.42107 20.7223 9.05141 21.1732ZM9.7036 19.2056L9.70419 19.2042C9.70275 19.204 9.70133 19.2036 9.69991 19.2035C9.70255 19.2045 9.70077 19.2045 9.7036 19.2056ZM6.25763 17.0454C8.78527 18.5047 14.2433 18.5954 15.5088 18.1711C15.6444 18.1255 15.7857 18.1392 15.9011 18.2057C15.9273 18.2209 15.9522 18.2391 15.9755 18.2593C16.1003 18.37 16.1589 18.5446 16.1315 18.7237C15.8507 20.5581 16.9875 21.7595 17.6365 22.2831C19.2322 19.207 18.4119 17.6651 18.3685 17.5883C18.2728 17.4253 18.2791 17.2115 18.3792 17.0332C18.4804 16.8531 18.6675 16.7388 18.8592 16.7373C18.9368 16.7366 20.6866 16.686 22.5581 13.7586C21.7785 13.4623 20.1611 13.0817 18.7247 14.2321C18.5833 14.3454 18.4027 14.382 18.2445 14.3292C18.0848 14.2762 17.9695 14.1411 17.9348 13.9691C17.6695 12.661 14.862 7.97958 12.3343 6.52024C8.91919 4.54852 4.85598 4.75479 1.14361 7.07601C0.989526 11.4517 2.84249 15.0737 6.25763 17.0454Z" fill="black" stroke="black" stroke-width="0.2"/>
<path d="M7.99708 11.0331C9.26808 8.83165 9.2613 7.02991 9.26109 7.01173C9.25748 6.7156 9.48339 6.4511 9.76609 6.41996C10.0482 6.38976 10.2818 6.60371 10.2873 6.89845C10.2891 6.9842 10.3101 9.02458 8.86215 11.5325C7.41418 14.0405 5.63663 15.0425 5.5615 15.0838C5.39845 15.1741 5.21798 15.1696 5.0782 15.0889C4.99585 15.0413 4.92773 14.9671 4.88512 14.8702C4.77088 14.6086 4.8885 14.281 5.14821 14.1375C5.1637 14.1291 6.71445 13.2547 7.99708 11.0331Z" fill="black" stroke="black" stroke-width="0.2"/>
<path d="M11.4985 7.41942C11.7811 7.38945 12.0138 7.60293 12.0197 7.89791C12.0215 7.98361 12.0425 10.024 10.5946 12.532C9.82124 13.8714 8.95251 14.7733 8.35967 15.2938C8.18377 15.4482 7.95049 15.4718 7.77519 15.3706C7.72491 15.3416 7.67908 15.302 7.64106 15.2527C7.47061 15.0309 7.51651 14.6899 7.74314 14.4906C8.26797 14.0293 9.03897 13.2285 9.72949 12.0325C11.0005 9.83104 10.9937 8.0293 10.9935 8.01112C10.9899 7.71506 11.2158 7.45056 11.4985 7.41942Z" fill="black" stroke="black" stroke-width="0.2"/>
<path d="M5.67854 9.05643C5.20077 8.7806 5.0608 8.12861 5.36589 7.60017C5.67098 7.07174 6.30561 6.86697 6.78337 7.1428C7.26113 7.41864 7.40111 8.07063 7.09602 8.59906C6.79093 9.1275 6.1563 9.33227 5.67854 9.05643Z" fill="black" stroke="black" stroke-width="0.2"/>
</g>
<defs>
<clipPath id="clip0_119_700">
<rect width="24" height="24" fill="white" transform="matrix(-1 0 0 1 24 0)"/>
</clipPath>
</defs>
</svg>
